HIERARCHY
ROOT HipCenter
{
    OFFSET 0.0 0.0 -0.0
    CHANNELS 6 Xposition Yposition Zposition Zrotation Xrotation Yrotation
    JOINT Spine
    {
        OFFSET 0.0 11.465803146362305 0.0
        CHANNELS 3 Zrotation Xrotation Yrotation
        JOINT ShoulderCenter
        {
            OFFSET 0.0 32.85440444946289 0.0
            CHANNELS 3 Zrotation Xrotation Yrotation
            JOINT LeftShoulder
            {
                OFFSET 19.58982276916504 0.0 0.0
                CHANNELS 3 Zrotation Xrotation Yrotation
                JOINT LeftElbow
                {
                    OFFSET 29.172470092773438 0.0 0.0
                    CHANNELS 3 Zrotation Xrotation Yrotation
                    JOINT LeftWrist
                    {
                        OFFSET 26.590774536132812 0.0 0.0
                        CHANNELS 3 Zrotation Xrotation Yrotation
                        JOINT LeftHand
                        {
                            OFFSET 3.827789783477783 0.0 0.0
                            CHANNELS 3 Zrotation Xrotation Yrotation
                            End Site
                            {
                                OFFSET 1.5311161279678345 0.0 0.0
                            }
                        }
                    }
                }
            }
            JOINT RightShoulder
            {
                OFFSET -19.58982276916504 0.0 0.0
                CHANNELS 3 Zrotation Xrotation Yrotation
                JOINT RightElbow
                {
                    OFFSET -29.172470092773438 0.0 0.0
                    CHANNELS 3 Zrotation Xrotation Yrotation
                    JOINT RightWrist
                    {
                        OFFSET -26.590774536132812 0.0 0.0
                        CHANNELS 3 Zrotation Xrotation Yrotation
                        JOINT RightHand
                        {
                            OFFSET -3.827789783477783 0.0 0.0
                            CHANNELS 3 Zrotation Xrotation Yrotation
                            End Site
                            {
                                OFFSET -1.5311161279678345 0.0 0.0
                            }
                        }
                    }
                }
            }
            End Site
            {
                OFFSET 0.0 13.14176082611084 0.0
            }
        }
    }
    JOINT LeftHip
    {
        OFFSET 13.23438835144043 0.0 0.0
        CHANNELS 3 Zrotation Xrotation Yrotation
        JOINT LeftKnee
        {
            OFFSET 0.0 -41.66917419433594 0.0
            CHANNELS 3 Zrotation Xrotation Yrotation
            JOINT LeftAnkle
            {
                OFFSET 0.0 -46.274375915527344 0.0
                CHANNELS 3 Zrotation Xrotation Yrotation
                JOINT LeftFoot
                {
                    OFFSET 0.0 -12.08497142791748 0.0
                    CHANNELS 3 Zrotation Xrotation Yrotation
                    End Site
                    {
                        OFFSET 0.0 0.0 4.833988666534424
                    }
                }
            }
        }
    }
    JOINT RightHip
    {
        OFFSET -13.23438835144043 0.0 0.0
        CHANNELS 3 Zrotation Xrotation Yrotation
        JOINT RightKnee
        {
            OFFSET 0.0 -41.66917419433594 0.0
            CHANNELS 3 Zrotation Xrotation Yrotation
            JOINT RightAnkle
            {
                OFFSET 0.0 -46.274375915527344 0.0
                CHANNELS 3 Zrotation Xrotation Yrotation
                JOINT RightFoot
                {
                    OFFSET 0.0 -12.08497142791748 0.0
                    CHANNELS 3 Zrotation Xrotation Yrotation
                    End Site
                    {
                        OFFSET 0.0 0.0 4.833988666534424
                    }
                }
            }
        }
    }
}
MOTION
Frames: 7
Frame Time: 0.03333333333333333
-5.299999713897705 -16.599998474121094 2.6000001430511475 -73.30076803781327 -24.690920339101833 98.30831901839015 -3.889438762970987 4.07775238810386 0.6016289395712235 5.635265081146123e-07 -1.0409026941826706e-06 -1.8348533747423363 119.15164783560483 10.020240469676818 -119.65982911392152 6.775768741326115e-07 1.445825728728082e-06 57.85180562631014 179.9999956222981 51.6530461110816 -146.95590349501757 4.7708320221952736e-15 1.3241718894150476e-31 3.1805546814635156e-15 -112.42573201653273 -0.8858935524951395 95.62134586853028 6.132083029555917e-06 2.3529413429043493e-06 -41.60916752437699 -1.953673190222864e-05 -56.6632690111446 -3.6814298022868606 -3.1805546814635168e-15 -6.3611093629270335e-15 -1.5902773407317584e-15 167.73826155342311 -47.92036779963859 -133.80643680067348 75.7228747657714 42.627386552812006 -92.89718133453258 -85.56388737896843 -80.5789900911426 -37.850196670901724 7.553817368475852e-15 3.1805546814635168e-15 -1.5902773407317588e-15 -129.18838671578584 -45.24637970863559 152.810813158133 -82.38088944913335 44.790629675587816 122.17815489986842 -96.57637089272494 -65.34568481076458 -139.7455953684248 -8.827812596100317e-32 -3.1805546814635168e-15 -3.1805546814635168e-15
-5.699999809265137 -14.800000190734863 2.4000000953674316 -71.22196367029365 -23.53386921190132 98.29001626188654 -3.351583284321469 3.7121853611230198 0.5246143369711419 1.1005085342557255e-06 -2.4510058345559332e-06 -1.9698020261774252 120.30512985658528 8.536018820781223 -122.85617535851394 -5.029901161927843e-06 -3.1853061298719043e-06 59.24499948334335 -179.9999959096535 52.546417865665354 -146.99196094736968 9.54166404439055e-15 -3.1805546814635168e-15 2.648343778830095e-31 -112.71959232306857 -1.841625149090623 99.66626359891642 3.8604054586013905e-06 -1.7992441042394894e-06 -43.71683739620594 -2.2785183806036153e-05 -60.98229039524865 -4.078042007044841 0.0 0.0 -4.770832022195274e-15 166.36546724525783 -52.30519066503152 -135.69429555905944 70.94489922935344 41.918299536779195 -90.01163163138892 -80.68600207825509 -81.53604473292134 -32.320147633553525 -4.770832022195275e-15 0.0 0.0 -127.01602635559571 -49.483241207234435 156.75625337339042 -75.81928416538493 45.50848818706747 116.36439641825268 -95.36178210231022 -66.98282219885506 -139.08057804899775 0.0 0.0 -3.180554681463516e-15
-5.900000095367432 -13.0 2.0999999046325684 -69.00127768514956 -22.07245851663646 98.2245960953053 -3.211244682898323 3.5805802810122564 0.48949694881935146 2.7684214596704266e-06 -1.0993808896783644e-06 -1.6389554278724896 121.18379314204063 6.56646433170827 -125.37760763408652 -7.176106081670363e-07 1.2513029499765364e-06 60.1781325576978 -179.99999932048524 50.45049992486833 -148.01208715204083 0.0 0.0 0.0 -112.29513648437734 -2.3965861240506374 103.5466877138085 6.805974127966744e-06 2.946451211969868e-06 -45.26350475095826 -1.9048076181556368e-05 -59.45776418553274 -4.359412170133763 0.0 0.0 1.5902773407317582e-15 164.23585517807442 -56.724679691084965 -137.9662713603721 66.39409360139463 41.09314572330362 -86.86385446534682 -72.34021207891134 -82.16612511025667 -23.280228662935485 6.7586786981099735e-15 3.1805546814635168e-15 -1.5902773407317588e-15 -124.18357840879091 -53.81463841071995 161.32917447099882 -69.05166765185174 45.6885283445595 109.98147353615882 -93.38861008436271 -68.08217194595976 -138.06805275944703 6.3611093629270335e-15 -3.1805546814635168e-15 1.7655625192200634e-31
-6.199999809265137 -11.300000190734863 1.899999976158142 -65.82088467550723 -20.42306349061174 98.69001322273535 -2.9943144743716115 4.365292508911665 0.5750041636009487 -2.1893739264783155e-06 5.017801319677188e-06 -1.9714478028522107 120.96562156213372 5.295736838735112 -127.89433010456453 -8.147837553650271e-07 9.343920760070471e-07 60.63935985429002 -179.9999986450417 54.091206104384185 -149.0074509304545 3.1805546814635168e-15 3.1805546814635168e-15 -8.827812596100317e-32 -113.07297522560081 -3.0550360359149327 107.28702195178406 -2.4460833400184275e-06 -8.082236092416687e-07 -47.17675306296874 1.6385922799698522e-05 -66.59719356144709 -3.708442000356288 -3.1805546814635168e-15 0.0 0.0 160.57235764875793 -62.28030629362701 -142.55047355349242 61.30333647307605 41.16778906752679 -84.413428163664 -65.92880725098665 -83.60456079169683 -17.130897854800484 -1.9878466759146984e-15 0.0 0.0 -118.85227682400922 -58.164697472562835 169.0107373508688 -62.25713729072703 45.54900756862261 104.49564307280642 -89.23497967250162 -69.52301074674055 -134.62741769840937 1.7655625192200634e-31 3.1805546814635164e-15 -6.361109362927033e-15
-6.400000095367432 -9.600000381469727 1.7000000476837158 -63.199166363028525 -19.273212227063045 99.2802582834314 -2.1919924057627975 4.392254338140695 0.5485689396545994 8.133465596639445e-07 -4.364097455438355e-06 -2.246210784998053 120.67220058625429 3.5003085260371996 -130.57977187147463 3.2640525519406887e-07 1.3356302937956683e-06 61.816665082291806 179.99998911868016 59.80207190614582 -144.2168641440198 -1.5902773407317584e-15 -8.827812596100317e-32 6.3611093629270335e-15 -112.96529440693759 -3.613721801227286 111.39310785887821 -5.340602816821162e-07 -4.134379966088363e-06 -49.17473323217006 -3.915484703524824e-06 -71.58171669600289 -3.911692452377133 -3.1805546814635168e-15 4.4139062980501586e-32 -1.5902773407317584e-15 157.48858776094548 -67.42356297888693 -147.18485280353923 55.8530550948837 40.951098479654156 -80.59179098972089 -55.47364204979616 -84.62626348838188 -6.7795837888140245 3.1805546814635168e-15 0.0 0.0 -112.35662829176962 -61.39551273002991 176.55896479336906 -56.408857212400825 44.26770956927541 99.75556566609696 -86.58586691987114 -70.02770488375711 -133.67229682843785 0.0 0.0 -1.5902773407317584e-15
-6.5 -7.90000057220459 1.5 -60.84308184819029 -17.83495245457289 99.10132125900816 -1.890456899981082 4.425960516183183 0.49195836918503394 -2.343406755814622e-06 9.017357943199969e-07 -2.0788567910460185 120.0095416461042 2.125978402386168 -132.609171792072 9.475485781733643e-07 6.059932769869414e-06 61.61739801607717 179.99999736314552 45.30526575926372 -148.38203033572387 -1.5902773407317584e-15 -8.827812596100317e-32 6.3611093629270335e-15 -112.74962860154085 -4.210628470249761 115.10367683990569 8.403114465913613e-07 6.137529999600462e-08 -50.844180095171886 9.959167102342202e-07 -78.83145744406998 -3.1488610023689354 0.0 0.0 -3.1805546814635168e-15 150.62048474859122 -71.79678398418268 -154.4790102052333 51.35028222000499 39.988787499208755 -78.24541174976505 -37.855998301914724 -85.1264262680443 11.515625418726508 -3.1805546814635176e-15 -4.4139062980501586e-32 1.5902773407317588e-15 -105.48144061854674 -65.00771550698816 -173.79928995883623 -50.17853714721895 43.33648535352835 94.17345107541263 -82.06869389652171 -70.55039178273782 -130.30819395803246 0.0 -3.1805546814635168e-15 0.0
-6.599999904632568 -6.400000095367432 1.3000000715255737 -58.32453479606441 -15.19537276185407 98.79177396386655 -3.287193776919534 3.9754000608101454 0.4864145213635707 1.9233761166227584e-06 3.0110780421498903e-07 -1.0447689828851245 120.14593477532456 -0.11407418257045207 -135.3070909202524 -3.6937244967194895e-06 -9.260904573901149e-07 62.21408196132921 -179.99999525026382 52.90409763174996 -147.39091093416505 -1.1131941385122309e-14 3.180554681463516e-15 6.3611093629270335e-15 -112.05089808959916 -4.637617328540986 119.62014217355004 4.700561220839188e-06 1.0753164039878407e-06 -52.27546480500198 -5.979028890816774e-06 -51.772823432057244 -4.779585249182703 0.0 0.0 -6.361109362927033e-15 138.49768220420344 -76.3167440886995 -167.378596200414 46.08998425702281 39.37783527129005 -74.6437507367323 -14.707384767124577 -85.09979368012434 34.79147319574596 -2.3854160110976376e-15 3.310429723537619e-32 -1.5902773407317584e-15 -97.07605216733738 -67.91858233712995 -161.39596851128067 -44.43797065254404 42.42109618664169 88.07917841165731 -76.59999532390951 -71.31742455802375 -125.61784598921301 0.0 0.0 0.0
